<svg xmlns="http://www.w3.org/2000/svg" viewBox="0 0 900 220" fill="none">

  <!-- CAR SILHOUETTE -->
  <path
    d="M55 128
       C95 90,145 76,235 76
       C280 76,330 84,378 102
       C408 112,430 118,458 120
       C430 118,402 108,382 94
       C350 70,318 56,260 50
       C188 42,120 58,76 94
       C56 110,46 122,55 128Z"
    fill="#111111"
  />

  <!-- RED TOP LINE -->
  <path
    d="M228 54
       C320 48,392 68,452 112
       C430 104,402 92,382 78
       C344 54,300 44,228 54Z"
    fill="#d10000"
  />

  <!-- FRONT LIGHT -->
  <path
    d="M88 116
       C108 104,132 100,158 102
       C136 108,118 118,92 124Z"
    fill="#ffffff"
  />

  <!-- BRAND TEXT -->
  <text
    x="500"
    y="118"
    font-family="Arial, Helvetica, sans-serif"
    font-size="68"
    font-weight="700"
    fill="#111111"
  >
    AUTO
  </text>

  <text
    x="665"
    y="118"
    font-family="Arial, Helvetica, sans-serif"
    font-size="68"
    font-weight="700"
    fill="#d10000"
  >
    PARTS
  </text>

  <text
    x="840"
    y="118"
    font-family="Arial, Helvetica, sans-serif"
    font-size="68"
    font-weight="700"
    fill="#111111"
  >
    EU
  </text>

  <!-- SUBTITLE -->
  <text
    x="500"
    y="162"
    font-family="Arial, Helvetica, sans-serif"
    font-size="24"
    fill="#666666"
  >
    ПОДБОР И ДОСТАВКА ЗАПЧАСТЕЙ ИЗ ЕВРОПЫ
  </text>

</svg>