<svg xmlns="http://www.w3.org/2000/svg" viewBox="0 0 980 220" fill="none">

  <!-- CAR BODY -->
  <path
    d="M58 132
       C92 98 148 74 248 74
       C318 74 382 92 430 122
       C446 132 462 136 486 136
       C468 126 452 112 434 96
       C392 58 332 42 254 42
       C168 42 102 66 66 102
       C50 118 44 128 58 132Z"
    fill="#111111"
  />

  <!-- RED ROOF / SPEED LINE -->
  <path
    d="M250 48
       C338 42 408 68 476 126
       C452 118 426 102 402 84
       C360 54 314 42 250 48Z"
    fill="#d10000"
  />

  <!-- HEADLIGHT -->
  <path
    d="M94 116
       C112 104 134 100 158 102
       C138 110 120 120 96 126Z"
    fill="#ffffff"
  />

  <!-- TEXT -->
  <text
    x="520"
    y="108"
    font-family="Arial, Helvetica, sans-serif"
    font-size="64"
    font-weight="700"
    fill="#111111"
  >
    AUTO
  </text>

  <text
    x="690"
    y="108"
    font-family="Arial, Helvetica, sans-serif"
    font-size="64"
    font-weight="700"
    fill="#d10000"
  >
    PARTS
  </text>

  <text
    x="905"
    y="108"
    font-family="Arial, Helvetica, sans-serif"
    font-size="64"
    font-weight="700"
    fill="#111111"
  >
    EU
  </text>

  <!-- SUBTITLE -->
  <text
    x="520"
    y="150"
    font-family="Arial, Helvetica, sans-serif"
    font-size="22"
    fill="#666666"
  >
    ПОДБОР И ДОСТАВКА ЗАПЧАСТЕЙ ИЗ ЕВРОПЫ
  </text>

</svg>